<svg aria-hidden="true" style="position: absolute; width: 0; height: 0; overflow: hidden;" version="1.1" xmlns="http://www.w3.org/2000/svg" xmlns:xlink="http://www.w3.org/1999/xlink">
<defs>
<symbol id="icon-arrow_down" viewBox="0 0 56 32">
<path fill="#e4b56b" style="fill: var(--color1, #e4b56b)" d="M52.288 0l-24.288 24.554-24.288-24.554-3.712 3.749 28 28.251 28-28.251-3.712-3.749z"></path>
</symbol>
<symbol id="icon-arrow_left" viewBox="0 0 17 32">
<path fill="#fff" style="fill: var(--color2, #fff)" d="M13.619 16l-13.619 13v3l16.762-16-16.762-16v3l13.619 13z"></path>
</symbol>
<symbol id="icon-facebook-4-1" viewBox="0 0 32 32">
<path d="M0 0v32h17.042v-12.361h-4.166v-5.046h4.166v-4.238c0-3.082 2.498-5.58 5.581-5.58h4.355v4.538h-3.116c-0.979 0-1.773 0.794-1.773 1.773v3.508h4.811l-0.665 5.046h-4.146v12.361h9.912v-32h-32z"></path>
</symbol>
<symbol id="icon-Flag_of_Russia-1" viewBox="0 0 32 32">
<path fill="#fff" style="fill: var(--color2, #fff)" d="M0.052 15.948v-10.735h31.897v10.735h-31.897z"></path>
<path fill="#d52b1e" style="fill: var(--color3, #d52b1e)" d="M32 16h-32v10.839h32v-10.839z"></path>
<path fill="#0039a6" style="fill: var(--color4, #0039a6)" d="M32 12.387h-32v7.226h32v-7.226z"></path>
</symbol>
<symbol id="icon-Flag_of_Ukraine-1" viewBox="0 0 32 32">
<path fill="#005bbb" style="fill: var(--color5, #005bbb)" d="M32 5.161h-32v21.677h32v-21.677z"></path>
<path fill="#ffd500" style="fill: var(--color6, #ffd500)" d="M32 16h-32v10.839h32v-10.839z"></path>
</symbol>
<symbol id="icon-google-plus" viewBox="0 0 32 32">
<path d="M0 0v32h32v-32h-32zM23.97 13.257v1.99h1.935v2h-1.935v1.99h-1.944v-1.99h-1.935v-2h1.935v-1.99h1.944zM17.641 16.159c0 3.92-2.556 6.698-6.403 6.698-3.684 0-6.667-3.068-6.667-6.857s2.983-6.857 6.667-6.857c1.801 0 3.302 0.674 4.467 1.796l-1.81 1.787c-0.492-0.486-1.356-1.057-2.656-1.057-2.274 0-4.129 1.937-4.129 4.332s1.856 4.331 4.129 4.331c2.638 0 3.63-1.955 3.784-2.956h-3.784v-2.357h6.294c0.063 0.346 0.108 0.692 0.108 1.141z"></path>
</symbol>
<symbol id="icon-instagram-9-1" viewBox="0 0 32 32">
<path d="M20.361 5.919h-8.725c-3.153 0-5.718 2.565-5.718 5.718v8.725c0 3.153 2.565 5.718 5.718 5.718h8.725c3.153 0 5.718-2.565 5.718-5.718v-8.725c0-3.153-2.565-5.718-5.718-5.718zM15.999 21.838c-3.338 0-6.053-2.715-6.053-6.053s2.715-6.053 6.053-6.053c3.338 0 6.053 2.715 6.053 6.053s-2.715 6.053-6.053 6.053zM23.406 9.845c0 0.518-0.42 0.938-0.937 0.938s-0.937-0.42-0.937-0.938v-0.017c0-0.518 0.42-0.938 0.937-0.938s0.937 0.42 0.937 0.938v0.017z"></path>
<path d="M16.001 19.963c2.307 0 4.178-1.87 4.178-4.178s-1.871-4.178-4.178-4.178c-2.307 0-4.178 1.871-4.178 4.178s1.871 4.178 4.178 4.178z"></path>
<path d="M31.063 0h-30.125c-0.518 0-0.938 0.42-0.938 0.938v30.125c0 0.518 0.42 0.937 0.938 0.937h30.125c0.518 0 0.937-0.42 0.937-0.937v-30.125c0-0.518-0.42-0.938-0.937-0.938zM27.956 20.362c0 4.187-3.406 7.593-7.593 7.593h-8.724c-4.187 0-7.593-3.406-7.593-7.593v-8.724c0-4.187 3.406-7.593 7.593-7.593h8.724c4.187 0 7.593 3.406 7.593 7.593v8.724z"></path>
</symbol>
<symbol id="icon-search" viewBox="0 0 32 32">
<path d="M30.978 29.147l-7.616-7.921c1.958-2.328 3.031-5.257 3.031-8.306 0-7.124-5.796-12.92-12.92-12.92s-12.92 5.796-12.92 12.92c0 7.124 5.796 12.92 12.92 12.92 2.674 0 5.223-0.807 7.402-2.338l7.674 7.981c0.321 0.333 0.752 0.517 1.214 0.517 0.438 0 0.853-0.167 1.168-0.47 0.67-0.644 0.691-1.713 0.047-2.383zM13.473 3.37c5.266 0 9.55 4.284 9.55 9.55s-4.284 9.55-9.55 9.55c-5.266 0-9.55-4.284-9.55-9.55s4.284-9.55 9.55-9.55z"></path>
</symbol>
<symbol id="icon-united-kingdom-1" viewBox="0 0 32 32">
<path fill="#41479b" style="fill: var(--color7, #41479b)" d="M31.448 26.483h-30.896c-0.305 0-0.552-0.247-0.552-0.552v-19.862c0-0.305 0.247-0.552 0.552-0.552h30.896c0.305 0 0.552 0.247 0.552 0.552v19.862c-0 0.305-0.247 0.552-0.552 0.552z"></path>
<path fill="#f5f5f5" style="fill: var(--color8, #f5f5f5)" d="M32 6.069c0-0.305-0.247-0.552-0.552-0.552h-2.468l-10.221 6.697v-6.697h-5.517v6.697l-10.221-6.697h-2.468c-0.305 0-0.552 0.247-0.552 0.552v1.427l8.769 5.745h-8.769v5.517h8.769l-8.769 5.745v1.427c0 0.305 0.247 0.552 0.552 0.552h2.468l10.221-6.697v6.697h5.517v-6.697l10.221 6.697h2.468c0.305 0 0.552-0.247 0.552-0.552v-1.427l-8.769-5.745h8.769v-5.517h-8.769l8.769-5.745v-1.427z"></path>
<path fill="#ff4b55" style="fill: var(--color9, #ff4b55)" d="M32 14.345h-14.345v-8.828h-3.31v8.828h-14.345v3.31h14.345v8.828h3.31v-8.828h14.345z"></path>
<path fill="#ff4b55" style="fill: var(--color9, #ff4b55)" d="M11.184 18.759l-11.169 7.25c0.039 0.266 0.259 0.474 0.536 0.474h0.76l11.899-7.724-2.027-0z"></path>
<path fill="#ff4b55" style="fill: var(--color9, #ff4b55)" d="M21.649 18.759h-2.027l11.882 7.713c0.277-0.029 0.495-0.256 0.495-0.54v-0.454l-10.351-6.719z"></path>
<path fill="#ff4b55" style="fill: var(--color9, #ff4b55)" d="M0 6.678l10.111 6.563h2.027l-11.816-7.67c-0.189 0.088-0.321 0.276-0.321 0.498v0.609z"></path>
<path fill="#ff4b55" style="fill: var(--color9, #ff4b55)" d="M20.785 13.241l11.195-7.267c-0.047-0.258-0.262-0.457-0.533-0.457h-0.79l-11.899 7.724h2.027z"></path>
</symbol>
<symbol id="icon-youtube-1-1" viewBox="0 0 32 32">
<path d="M14.072 23.67c0 0.039 0 0.089-0.022 0.116-0.147 0.19-0.323 0.349-0.553 0.433-0.2 0.073-0.36-0.016-0.402-0.224-0.017-0.082-0.018-0.169-0.018-0.253-0.001-1.548-0.005-4.723-0.007-4.761h-1.142c0 0.043-0.001 4.465 0.001 5.301 0.001 0.226 0.025 0.451 0.119 0.661 0.101 0.227 0.269 0.371 0.519 0.413 0.183 0.032 0.362 0.011 0.536-0.048 0.357-0.123 0.636-0.355 0.883-0.633 0.022-0.025 0.045-0.048 0.086-0.093v0.694h1.145v-3.035c0-1.052 0-3.269 0-3.269l-1.146 0.003v4.696z"></path>
<path d="M19.486 19.474c-0.242-0.515-0.749-0.651-1.189-0.541-0.267 0.067-0.483 0.221-0.661 0.42-0.059 0.067-0.124 0.196-0.124 0.196s0-1.901 0-2.809h-1.147v8.535h1.147v-0.479c0 0 0.081 0.086 0.111 0.118 0.263 0.286 0.583 0.442 0.977 0.446 0.484 0.005 0.822-0.23 0.974-0.69 0.071-0.214 0.094-0.435 0.095-0.658 0.002-1.193 0.002-2.386-0.001-3.579 0-0.33-0.040-0.654-0.183-0.958zM18.488 23.868c0 0.064-0.008 0.129-0.021 0.191-0.053 0.25-0.243 0.362-0.513 0.307-0.163-0.034-0.291-0.128-0.401-0.246-0.005-0.006-0.037-0.049-0.037-0.049v-0.093l-0.003-3.79c0 0 0.025-0.070 0.079-0.117 0.135-0.119 0.284-0.195 0.47-0.176 0.159 0.016 0.285 0.089 0.344 0.235 0.044 0.112 0.079 0.236 0.080 0.355 0.006 1.127 0.004 2.255 0.002 3.384z"></path>
<path d="M15.36 12.035c0.268 0 0.485-0.218 0.485-0.485v-3.423c0-0.268-0.218-0.485-0.485-0.485s-0.485 0.218-0.485 0.485v3.423c-0 0.267 0.218 0.485 0.485 0.485z"></path>
<path d="M11.931 16.74h-3.974v1.223h1.339v7.312h1.293v-7.314h1.342v-1.22z"></path>
<path d="M22.764 23.037v0.81c0 0.283-0.229 0.512-0.511 0.512s-0.512-0.229-0.512-0.512v-1.575h2.197c0 0 0.013-1.099 0.003-1.597-0.003-0.213-0.020-0.428-0.063-0.636-0.114-0.539-0.404-0.946-0.946-1.124-0.159-0.053-0.331-0.080-0.499-0.090-0.558-0.036-1.047 0.124-1.429 0.551-0.335 0.374-0.451 0.825-0.452 1.314-0.002 0.935-0.006 1.87 0.003 2.805 0.003 0.238 0.029 0.481 0.084 0.713 0.117 0.498 0.388 0.889 0.868 1.105 0.35 0.159 0.72 0.166 1.094 0.112 0.602-0.088 1.013-0.411 1.212-0.994 0.15-0.436 0.132-1.392 0.132-1.392h-1.18zM21.741 20.411c0-0.282 0.229-0.512 0.512-0.512s0.511 0.23 0.511 0.512v0.884h-1.023v-0.884z"></path>
<path d="M0 0v32h32v-32h-32zM18.027 6.67h1.165v4.832c0 0.064 0.005 0.129 0.016 0.192 0.035 0.199 0.183 0.293 0.374 0.226 0.234-0.081 0.412-0.243 0.564-0.433 0.021-0.027 0.018-0.078 0.018-0.118v-4.699h1.174l-0 6.337h-1.174l0.001-0.681c-0.13 0.128-0.241 0.247-0.362 0.355-0.216 0.19-0.46 0.332-0.746 0.388-0.439 0.086-0.813-0.053-0.953-0.508-0.047-0.151-0.075-0.315-0.076-0.473v-5.418zM15.36 6.511c0.929 0 1.681 0.753 1.681 1.681v3.29c0 0.929-0.753 1.681-1.681 1.681s-1.681-0.753-1.681-1.681v-3.29c-0-0.929 0.753-1.681 1.681-1.681zM10.838 4.429c0 0 0.534 2.268 0.789 3.342h0c0.255-1.074 0.789-3.342 0.789-3.342h1.336c0 0-1.027 3.405-1.486 4.923-0.017 0.055-0.024 0.114-0.024 0.172l0.001 3.482h-1.232l0.001-3.482c0-0.057-0.008-0.117-0.024-0.172-0.459-1.518-1.486-4.923-1.486-4.923h1.336zM25.529 24.637c0 1.557-1.244 2.83-2.801 2.863-4.485 0.096-8.972 0.096-13.457 0-1.556-0.033-2.8-1.305-2.8-2.863v-7.005c0-1.557 1.244-2.829 2.8-2.862 4.485-0.096 8.972-0.096 13.457 0 1.557 0.033 2.801 1.305 2.801 2.862v7.005z"></path>
</symbol>
</defs>
</svg>
